PathFileType	4	(X/Y/Z)	D:\TRACE\v60_Jaco2_6-2-23\JustBodyDRS_Motion3_7-platform.trc
DataRate	CameraRate	NumFrames	NumMarkers	Units	OrigDataRate	OrigDataStartFrame	OrigNumFrames
100.00	100.00	      74	5	mm	100.00	5251	      7000
Frame#	Time	Left_Front			Right_Front			Left_Aft			Right_Aft			Post			
		X1	Y1	Z1	X2	Y2	Z2	X3	Y3	Z3	X4	Y4	Z4	X5	Y5	Z5	

5251	52.500	-795.76965	1.33617	-653.12988	774.68127	-0.48353	-630.21246	-727.31525	16.74126	480.72449	687.24823	16.02495	586.63684	0.07296	1294.14478	-982.90863	
5252	52.510	-795.79700	1.43566	-653.17456	774.79456	-0.40592	-630.19269	-727.09662	16.54741	480.89734	687.48889	15.48089	586.35718	0.12412	1294.35571	-982.69128	
5253	52.520	-795.71228	1.30723	-653.05609	774.87939	-0.39583	-630.19788	-727.04523	16.53307	480.95517	687.67523	15.42330	586.38782	0.19598	1294.59583	-982.46680	
5254	52.530	-795.64746	1.34483	-653.05060	774.93549	-0.31184	-630.16693	-726.97430	16.40747	480.94940	687.50287	15.55270	586.68488	0.26790	1294.80286	-982.14880	
5255	52.540	-795.42102	1.87897	-653.09131	774.97876	-0.21177	-630.13586	-726.96381	16.26693	481.01807	687.46436	15.52240	586.73370	0.27220	1294.95532	-981.99121	
5256	52.550	-795.31500	1.94458	-653.03259	774.99896	0.02521	-630.13757	-726.90295	16.26694	481.03195	687.53546	15.35938	586.65228	0.36103	1295.20020	-981.88757	
5257	52.560	-795.27722	1.94654	-652.99457	775.03357	0.18525	-630.11084	-726.88611	16.40587	481.02026	687.63269	15.41238	586.58771	0.28447	1295.48645	-981.92377	
5258	52.570	-795.26471	2.00318	-653.01849	775.10516	0.36241	-630.09119	-726.91370	16.50995	480.93137	687.63715	15.28722	586.61249	0.19100	1295.71802	-981.93817	
5259	52.580	-795.24750	2.01275	-653.02264	775.12549	0.41441	-630.04419	-726.86993	16.36324	480.92773	687.58716	15.13882	586.80194	0.23855	1295.79565	-981.71515	
5260	52.590	-795.25647	2.06759	-652.98291	775.15820	0.45004	-629.99854	-726.75653	16.03409	481.05978	687.64453	14.91720	586.79236	0.31447	1295.93127	-981.36798	
5261	52.600	-795.20703	2.20740	-652.99664	775.20020	0.67034	-629.99237	-727.04095	16.39611	481.09698	687.68237	14.83740	586.84674	0.48234	1296.14001	-980.86035	
5262	52.610	-795.15326	2.27690	-652.94824	775.18768	0.90279	-629.98145	-726.94586	16.40851	481.05505	687.76190	14.67657	586.87701	0.65636	1296.42883	-980.39502	
5263	52.620	-795.16064	2.43103	-652.92419	775.30371	1.15543	-629.92310	-726.94055	16.43133	481.07956	687.74951	14.55797	586.89734	0.80676	1296.78357	-979.94403	
5264	52.630	-795.09546	2.78369	-652.81854	775.30157	1.26406	-629.94879	-726.86517	16.31909	481.08780	687.86090	14.42288	586.90955	0.86804	1297.06299	-979.43793	
5265	52.640	-795.08191	2.92117	-652.72925	775.32788	1.39764	-629.92017	-726.64795	15.66266	481.40927	687.96057	14.32277	586.96051	0.90487	1297.21423	-979.05444	
5266	52.650	-795.01501	3.00852	-652.63037	775.31836	1.43322	-629.87708	-726.58838	15.55485	481.62024	688.00623	14.27719	587.01276	0.86302	1297.30640	-978.62866	
5267	52.660	-794.98505	3.13434	-652.55188	775.52948	1.67324	-629.63385	-726.53577	15.47511	481.62549	688.09680	14.16580	587.08350	0.84355	1297.45178	-978.16394	
5268	52.670	-794.65594	3.31060	-652.26349	775.65485	1.89180	-629.60791	-726.43298	15.44762	481.60968	688.21136	14.06569	587.14532	1.03362	1297.74963	-977.71399	
5269	52.680	-794.56543	3.40468	-652.10748	775.74469	2.13135	-629.60773	-726.34845	15.33048	481.57733	688.25958	13.98737	587.14856	1.00510	1298.01892	-977.60425	
5270	52.690	-794.54248	3.42279	-652.08948	775.75970	2.25611	-629.58783	-726.27802	15.10566	481.60330	688.27875	13.88891	587.24176	1.04250	1298.22253	-977.32666	
5271	52.700	-794.50800	3.47229	-652.03693	775.72803	2.33726	-629.53790	-726.24133	14.94692	481.58459	688.29382	13.79393	587.29846	0.98046	1298.50879	-977.06592	
5272	52.710	-794.59003	3.63100	-652.13330	775.76013	2.37813	-629.46960	-726.12360	14.62307	481.67764	688.26245	13.60322	587.34155	1.10395	1298.67078	-976.84650	
5273	52.720	-794.70343	3.89523	-652.45587	775.77783	2.57224	-629.43988	-726.36432	15.22917	481.50742	688.26471	13.44885	587.35614	0.75437	1298.75793	-976.46136	
5274	52.730	-794.72491	4.06631	-652.48517	775.81622	2.72747	-629.37909	-726.29193	15.15874	481.45306	688.28711	13.31826	587.32953	1.24120	1299.37488	-976.46667	
5275	52.740	-794.81860	4.31304	-652.50330	775.79895	2.88462	-629.32861	-726.27008	15.18247	481.48999	688.26062	13.22683	587.29095	1.19840	1299.63025	-976.23993	
5276	52.750	-794.82800	4.51449	-652.47656	775.75299	2.98306	-629.33533	-726.27374	14.99985	481.54007	688.28833	13.09619	587.34320	1.09133	1299.75745	-975.90472	
5277	52.760	-794.79767	4.70881	-652.46063	775.67731	3.04552	-629.33118	-726.28156	14.78890	481.59338	688.34509	12.99909	587.41901	1.06827	1299.82947	-975.43774	
5278	52.770	-794.76898	4.94940	-652.46387	775.67993	3.18508	-629.31128	-726.22632	14.65345	481.67130	688.40216	12.88732	587.46899	1.28558	1299.98425	-975.02991	
5279	52.780	-794.75616	5.25066	-652.34619	775.76855	3.36010	-629.30652	-726.23804	14.63341	481.70920	688.43134	12.78197	587.48431	1.38011	1300.19971	-974.54401	
5280	52.790	-794.77649	5.41456	-652.28778	775.88397	3.55538	-629.25836	-726.15234	14.60817	481.69708	688.42596	12.71368	587.52228	1.35734	1300.34546	-974.27020	
5281	52.800	-794.71442	5.53323	-652.25830	775.84955	3.67148	-629.26416	-726.19727	14.48831	481.58752	688.59106	12.34264	587.31091	1.31135	1300.48621	-973.79840	
5282	52.810	-794.66455	5.57706	-652.22681	775.80151	3.69473	-629.25140	-726.17206	14.18944	481.73010	688.54413	12.24963	587.36658	1.19319	1300.67615	-973.36127	
5283	52.820	-794.62762	5.66154	-652.16168	775.79480	3.75194	-629.22559	-726.15771	13.95933	481.92923	688.51300	12.07267	587.41016	1.21896	1300.75122	-973.18207	
5284	52.830	-794.56250	5.74598	-652.11462	775.82733	3.91026	-629.21692	-726.11725	13.84462	482.02505	688.51398	12.00041	587.45880	1.31917	1301.05371	-972.93933	
5285	52.840	-794.58362	5.78771	-652.15613	775.91473	4.02371	-629.19226	-725.91760	13.64960	481.91467	688.56769	11.94182	587.43958	1.38780	1301.35449	-972.80804	
5286	52.850	-794.40875	6.08871	-652.11163	775.90375	4.10878	-629.17212	-725.88837	13.64240	481.92261	688.62854	11.89599	587.47644	1.32859	1301.57117	-972.72864	
5287	52.860	-794.53400	5.87139	-652.11786	775.88782	4.16803	-629.16083	-725.91956	13.55966	481.96365	688.52710	11.86185	587.69476	1.29644	1301.66882	-972.61639	
5288	52.870	-794.34747	6.13615	-652.06708	775.86719	4.20546	-629.13293	-725.97028	13.41476	482.00287	688.58881	11.75558	587.75629	1.31068	1301.68457	-972.55884	
5289	52.880	-794.30408	6.17824	-652.00348	775.87036	4.29052	-629.13104	-725.93469	13.33372	482.01105	688.56610	11.72591	587.77502	1.22234	1301.77258	-972.51178	
5290	52.890	-794.29016	6.19540	-652.01782	775.90411	4.41533	-629.08966	-725.92603	13.41182	481.99756	688.59277	11.75303	587.80176	1.22834	1301.85974	-972.48206	
5291	52.900	-794.31256	6.18871	-652.05078	776.00281	4.40998	-629.09418	-725.92725	13.38449	481.98486	688.61951	11.70925	587.82751	1.18309	1301.96924	-972.50726	
5292	52.910	-794.33783	6.16684	-652.01917	775.98627	4.24444	-629.10211	-725.93213	13.33387	482.00250	688.65668	11.68627	587.87463	1.10414	1301.96436	-972.32062	
5293	52.920	-794.33936	6.16238	-651.96509	775.91479	4.19839	-629.13214	-725.97833	13.25477	482.07761	688.57660	11.53502	587.83868	0.89400	1301.85706	-972.01385	
5294	52.930	-794.30267	6.20221	-651.96313	775.86853	4.38637	-629.08374	-725.83533	13.00324	482.02118	688.35254	11.48758	587.98029	1.15663	1302.06543	-972.08734	
5295	52.940	-794.25800	6.29942	-652.05084	775.88824	4.37162	-629.06372	-725.82660	13.03213	482.00790	688.44879	11.37692	587.89026	1.12073	1302.10425	-971.97583	
5296	52.950	-794.30298	6.40361	-652.14618	776.06268	4.57614	-629.01270	-725.81714	13.18984	481.99896	688.44171	11.38363	587.87653	1.08378	1302.25745	-971.81647	
5297	52.960	-794.26489	6.41845	-652.18915	776.04016	4.58847	-629.03601	-725.82520	13.26281	481.93100	688.52118	11.34203	587.79279	1.26389	1302.31482	-971.69806	
5298	52.970	-794.27332	6.31076	-652.04834	775.92578	4.51132	-629.07166	-725.90308	13.21029	481.99091	688.48340	11.33755	587.82709	1.35798	1302.23804	-971.52777	
5299	52.980	-794.24500	6.25119	-651.95740	775.87903	4.33864	-629.09741	-725.99384	13.13715	482.04187	688.42590	11.36245	587.81458	1.27696	1302.13977	-971.32770	
5300	52.990	-794.27734	6.23346	-652.00177	775.90393	4.33499	-629.08649	-725.97742	13.17192	482.05344	688.47235	11.37097	587.87390	1.22873	1302.06323	-971.47443	
5301	53.000	-794.26208	6.23399	-652.02679	775.95117	4.42517	-629.05511	-725.92090	13.24942	481.98453	688.50854	11.42302	587.83960	1.26432	1302.12109	-971.58813	
5302	53.010	-794.29761	6.35606	-652.16956	776.05225	4.51142	-629.05139	-725.86731	13.32879	481.98444	688.48376	11.44442	587.77197	1.18283	1302.10291	-971.90277	
5303	53.020	-794.26550	6.37120	-652.20221	776.01062	4.36007	-629.10461	-725.86896	13.32367	481.96176	688.45203	11.45083	587.74487	1.11092	1302.02039	-972.14728	
5304	53.030	-794.26825	6.19669	-652.02582	775.92157	4.26457	-629.13110	-725.98102	13.26739	482.01498	688.42535	11.43402	587.71545	1.16141	1301.93262	-972.22388	
5305	53.040	-794.32373	6.17134	-652.00153	775.92743	4.24839	-629.10004	-726.00842	13.26381	482.01663	688.37183	11.53707	587.79510	1.22296	1301.82117	-972.42279	
5306	53.050	-794.33624	6.15546	-652.05072	775.90063	4.20151	-629.10132	-725.89203	13.33712	482.04034	688.44647	11.63644	587.86774	1.28174	1301.81458	-972.54462	
5307	53.060	-794.30933	6.21698	-652.11047	775.95508	4.16464	-629.13153	-725.85553	13.48538	481.95331	688.44116	11.68724	587.65973	1.30359	1301.77075	-972.67706	
5308	53.070	-794.30096	6.25434	-652.16211	775.94415	4.07186	-629.18524	-725.85443	13.56977	481.92654	688.39648	11.82803	587.55688	1.31586	1301.68396	-972.75586	
5309	53.080	-794.37500	6.09462	-652.18738	776.00085	3.92699	-629.20398	-725.84332	13.59973	481.90945	688.36865	12.03486	587.51715	1.34821	1301.34985	-972.89465	
5310	53.090	-794.52246	5.73781	-652.16986	775.93890	3.63813	-629.23413	-725.83649	13.65298	481.95956	688.36987	12.21578	587.50476	1.28432	1300.78113	-973.06934	
5311	53.100	-794.52423	5.58026	-652.13751	776.00568	3.43972	-629.23706	-725.73352	13.81144	482.00052	688.80829	12.41302	587.40210	1.34507	1300.43250	-973.21075	
5312	53.110	-794.43457	5.30245	-652.20197	776.04919	3.33605	-629.32092	-725.63831	13.96314	482.03409	688.57672	12.63171	587.41278	1.53930	1300.18066	-973.49066	
5313	53.120	-794.42810	5.20077	-652.29468	776.12762	3.10870	-629.39484	-725.36871	14.18138	481.97327	688.64313	12.84845	587.35181	1.23000	1299.96521	-974.11694	
5314	53.130	-794.50031	4.95100	-652.42688	776.18591	2.87322	-629.41132	-725.37274	14.35650	481.86935	688.67297	13.06040	587.31445	1.37479	1299.85815	-974.84033	
5315	53.140	-794.50964	4.49915	-652.53357	776.22357	2.63397	-629.49329	-725.68939	14.52114	481.79437	688.72418	13.20920	587.28418	1.25844	1299.44141	-975.62238	
5316	53.150	-794.42633	4.05890	-652.46967	776.17633	2.47363	-629.50360	-725.70831	14.63932	481.82608	688.67877	13.38308	587.32404	1.49249	1299.18896	-976.20416	
5317	53.160	-794.42902	3.91233	-652.49640	776.19446	2.34969	-629.56677	-725.68500	14.87679	481.69360	688.78210	13.57000	587.29822	1.48986	1298.66028	-976.96423	
5318	53.170	-794.44983	3.79264	-652.62451	776.25134	2.18244	-629.58264	-725.60748	15.08584	481.58127	688.76215	13.76635	587.17737	1.65362	1298.37537	-977.76508	
5319	53.180	-794.36792	3.68677	-652.67377	776.29517	2.02629	-629.66962	-725.61603	15.31252	481.45444	688.76453	13.93325	587.03192	1.57522	1298.04517	-978.52228	
5320	53.190	-794.33270	3.54538	-652.69568	776.30078	1.70579	-629.70471	-725.60388	15.44403	481.40536	688.78900	14.06928	587.02692	1.36486	1297.64844	-979.05981	
5321	53.200	-793.99072	3.17493	-652.23059	776.33514	1.32111	-629.80688	-725.56989	15.55398	481.34598	688.79492	14.16053	587.00366	1.58604	1297.22754	-979.32855	
5322	53.210	-794.39154	2.88029	-652.62537	776.32703	0.91496	-629.87506	-725.52380	15.68320	481.28253	688.75470	14.30257	586.89484	1.73330	1296.90454	-979.59674	
5323	53.220	-794.34045	2.63699	-652.66547	776.76196	0.51086	-630.34540	-725.45996	15.84292	481.14066	688.81207	14.58731	586.72638	1.92844	1296.31396	-979.92181	
5324	53.230	-794.28217	2.41140	-652.83990	776.57513	0.30446	-630.01093	-725.29559	16.11590	481.02707	688.95667	15.15545	586.55536	2.01501	1295.69434	-980.33044	
